PathFileType	4	(X/Y/Z)	S01_0018_Gait_markers.trc
DataRate	CameraRate	NumFrames	NumMarkers	Units	OrigDataRate	OrigDataStartFrame	OrigNumFrames
250.000000	250.000000	4	54	mm	250.000000	0	363
Frame#	Time	HEAD_ANT			R_HEAD			L_HEAD			C7			R_BACK			L_BACK			STERNUM			R_ACROMION			R_HUM_PROX			R_HUM_ANT			R_HUM_POST			R_ELBOW_LAT			R_ELBOW_MED			R_FOREARM			R_WIRST_LAT			R_WRITS_MED			R_HAND			L_ACROMION			L_HUM_PROX			L_HUM_ANT			L_HUM_POST			L_ELBOW_LAT			L_ELBOW_MED			L_FOREARM			L_WRIST_LAT			L_WIRST_MED			L_HAND			R_ILIAC			SACRUM			L_ILIAC			R_GTROCH			R_THIGH__1			R_THIGH_2			R_THIGH_3			R_THIGH_4			R_SHANK_1			R_SHANK_2			R_SHANK_3			R_SHANK_4			R_HEEL			R_FOOT_LAT			R_FOOT_MED			L_GTROCH			L_THIGH_1			L_THIGH_2			L_THIGH_3			L_THIGH_4			L_SHANK_1			L_SHANK_2			L_SHANK_3			L_SHANK_4			L_HEEL			L_FOOT_LAT			L_FOOT_MED			
		X1	Y1	Z1	X2	Y2	Z2	X3	Y3	Z3	X4	Y4	Z4	X5	Y5	Z5	X6	Y6	Z6	X7	Y7	Z7	X8	Y8	Z8	X9	Y9	Z9	X10	Y10	Z10	X11	Y11	Z11	X12	Y12	Z12	X13	Y13	Z13	X14	Y14	Z14	X15	Y15	Z15	X16	Y16	Z16	X17	Y17	Z17	X18	Y18	Z18	X19	Y19	Z19	X20	Y20	Z20	X21	Y21	Z21	X22	Y22	Z22	X23	Y23	Z23	X24	Y24	Z24	X25	Y25	Z25	X26	Y26	Z26	X27	Y27	Z27	X28	Y28	Z28	X29	Y29	Z29	X30	Y30	Z30	X31	Y31	Z31	X32	Y32	Z32	X33	Y33	Z33	X34	Y34	Z34	X35	Y35	Z35	X36	Y36	Z36	X37	Y37	Z37	X38	Y38	Z38	X39	Y39	Z39	X40	Y40	Z40	X41	Y41	Z41	X42	Y42	Z42	X43	Y43	Z43	X44	Y44	Z44	X45	Y45	Z45	X46	Y46	Z46	X47	Y47	Z47	X48	Y48	Z48	X49	Y49	Z49	X50	Y50	Z50	X51	Y51	Z51	X52	Y52	Z52	X53	Y53	Z53	X54	Y54	Z54	

1	0	81.92719268798828	1743.267944335938	-322.9686279296871	23.25163078308105	1691.343627929688	-246.9592590332028	23.47306632995605	1696.334838867188	-394.813323974609	-112.3890533447266	1527.385620117188	-326.5670471191403	-190.2757110595703	1332.214721679688	-261.6603393554685	-187.3192901611328	1336.85986328125	-402.655578613281	61.69650268554688	1361.34619140625	-317.5759277343747	-43.16991424560547	1479.653198242188	-151.4668273925778	-99.78092193603516	1324.17138671875	-60.64986801147432	-46.0379753112793	1234.421508789062	-49.34765624999972	-167.9388732910156	1246.132568359375	-53.14366149902316	-130.4636688232422	1137.892944335938	-39.28755187988256	-142.4793701171875	1132.126098632812	-118.6701049804685	-40.63800811767578	948.8729248046875	-23.9596996307371	-2.257477521896362	879.7730712890625	-60.31134033203106	-73.69064331054688	861.1885986328125	-28.09491539001446	-9.188129425048828	794.7244262695312	-0.3548274934290075	-30.62501335144043	1479.132446289062	-490.545257568359	-43.69736099243164	1314.0048828125	-588.9620361328122	19.92169570922852	1234.402587890625	-581.3322143554685	-98.49224090576172	1235.586303710938	-619.0939331054685	-36.34305953979492	1132.529052734375	-622.842834472656	-94.56343841552734	1124.453491210938	-570.5886230468748	85.73043060302734	969.4228515625001	-585.7069091796873	120.5466690063477	915.7019653320314	-528.731018066406	82.97447204589844	885.7341918945314	-593.5734252929685	163.5349731445312	838.7459106445314	-567.9882202148435	-51.60455703735352	1078.53955078125	-154.3577423095701	-177.7161407470703	1049.898193359375	-318.4321289062498	-63.8444938659668	1072.796752929688	-498.0795898437498	-83.55718994140625	928.6085205078125	-133.2499694824217	37.66913223266602	661.5263061523438	-148.810333251953	86.53431701660156	693.7344970703125	-144.2869720458983	122.1961212158203	596.8905029296875	-175.4621429443358	58.85282516479492	583.4490356445312	-166.8859710693358	51.91804504394531	366.2101745605469	-163.5257415771484	108.4514007568359	346.0061950683594	-171.7491302490234	106.7990112304688	261.0037536621094	-187.7863616943359	42.39207458496094	266.8313293457032	-183.7423400878906	19.05967903137207	51.37393569946295	-270.9296875	168.2341003417969	30.10988616943363	-167.7404937744141	230.4420471191406	50.92470169067388	-246.7841949462891	-101.9780960083008	960.0112915039064	-497.2001037597654	-57.89288330078125	665.5301513671876	-475.7866821289061	-107.5524368286133	692.8345336914064	-492.4380493164061	-136.8120422363281	596.7285766601564	-459.8981018066405	-74.46286010742188	588.9110107421876	-450.2655639648436	-170.1306610107422	330.3611450195314	-437.5285644531249	-230.9486541748047	321.0046997070314	-442.2062377929687	-252.6881561279297	238.4435577392579	-422.4831848144531	-190.04736328125	231.769500732422	-410.6726074218749	-335.4892883300781	65.68521881103523	-348.5392761230469	-164.0820159912109	20.60678672790537	-413.276611328125	-128.7039489746094	25.53878974914558	-306.2203979492188	
2	0.004	87.32322692871094	1742.441650390625	-322.6603088378902	28.47674369812012	1690.281494140625	-246.5758361816403	29.06074905395508	1695.467163085938	-394.5262451171871	-107.0372543334961	1526.466064453125	-326.5104064941403	-185.0483093261719	1331.35400390625	-261.7144775390622	-182.0148620605469	1336.132934570312	-402.6353454589841	66.94876098632812	1360.145874023438	-317.5414733886716	-37.87201309204102	1478.7021484375	-151.2537841796872	-94.78153991699219	1323.224975585938	-60.4775619506833	-41.47100448608398	1233.441528320312	-49.27647781372043	-163.2789154052734	1245.454711914062	-53.40450286865207	-125.4925537109375	1137.037719726562	-39.2101097106931	-141.3753356933594	1131.747192382812	-119.9924163818357	-36.56474685668945	948.0763549804688	-23.71134757995585	1.640239000320435	878.6406860351562	-60.10944366455059	-69.83784484863281	860.2261352539062	-27.80988693237286	-5.691246509552002	793.5870361328125	-0.2664942145345833	-25.21047592163086	1478.252563476562	-490.5283203124997	-37.92561721801758	1313.290649414063	-588.8820800781247	25.8195915222168	1233.807250976563	-581.2591552734373	-92.48393249511719	1234.701416015625	-619.1673583984373	-30.16383743286133	1131.906860351563	-623.137756347656	-88.45702362060547	1123.598510742188	-570.7736816406248	92.72843933105469	969.3176879882814	-585.3727416992185	127.5499038696289	915.9439086914064	-528.1234130859373	90.43667602539062	885.5147094726564	-593.0751953124998	171.0942535400391	839.1470947265626	-567.2430419921873	-44.98040008544922	1077.580200195312	-154.2552947998045	-173.4913482666016	1049.437744140625	-318.9719238281248	-59.20858001708984	1071.82275390625	-498.1464233398435	-78.50796508789062	927.7042846679688	-133.4272613525389	42.40553665161133	660.43017578125	-149.0783843994139	91.32447814941406	692.5187377929688	-144.272735595703	126.8795700073242	595.3013305664062	-176.3538665771483	63.67551803588867	582.3402099609375	-167.321334838867	60.66052627563477	364.5830688476563	-164.061538696289	117.2915420532227	345.3459167480469	-172.3907623291015	118.1709899902344	260.6233215332032	-187.2984619140624	53.65862655639648	264.9082031250001	-184.2553558349609	35.93276977539062	48.68462371826178	-270.619873046875	185.5352020263672	30.87610435485843	-167.8517761230469	247.3036651611328	52.94863128662115	-247.1445465087891	-97.36931610107422	959.4317016601564	-497.2049560546873	-55.24269485473633	665.0608520507814	-476.0845947265623	-104.8926544189453	692.6569213867189	-492.3402404785155	-134.5574951171875	596.5571899414064	-459.2396545410155	-72.14896392822266	588.6207885742189	-450.6701049804686	-169.1282348632812	330.408416748047	-437.6261596679687	-229.7984619140625	321.4828186035157	-441.9940490722656	-252.1538543701172	238.7098999023438	-422.3034973144531	-189.4220581054688	231.8939666748048	-410.7758178710937	-335.2972412109375	66.30805206298835	-348.2624816894531	-164.2018737792969	20.60238647460947	-413.1863098144531	-128.6163635253906	25.54888343811042	-306.2380981445312	
3	0.008	92.78876495361328	1741.488647460938	-322.334320068359	33.80137252807617	1689.199462890625	-246.170257568359	34.47048950195312	1694.6875	-394.2700500488277	-101.6438293457031	1525.522583007812	-326.4564514160153	-179.5944061279297	1330.432250976562	-261.7437744140622	-176.7975616455078	1335.322143554688	-402.6405639648435	72.37496185302734	1359.049682617188	-317.4703063964841	-32.54643249511719	1477.70751953125	-151.1802978515622	-90.00115966796875	1322.368408203125	-60.6327133178708	-36.72457885742188	1232.428588867188	-49.14802169799777	-158.4581146240234	1244.585815429688	-53.39186859130832	-119.6511001586914	1135.989379882812	-39.25868988037085	-136.8404388427734	1130.801391601562	-120.1506881713865	-32.03003311157227	946.8992919921875	-23.97319984436014	5.690149784088135	877.5398559570312	-59.77631759643536	-65.99057769775391	859.404052734375	-27.60350227355938	-1.719664692878723	792.4081420898438	0.2122566998006673	-19.85310173034668	1477.327880859375	-490.366546630859	-32.11428070068359	1312.505981445313	-588.7795410156247	31.82630348205566	1233.017578125	-581.0202636718748	-86.62650299072266	1233.844604492188	-619.2017822265623	-23.85043144226074	1131.110473632813	-623.1254882812498	-82.35963439941406	1122.558837890625	-571.163635253906	99.73603057861328	969.2838745117189	-584.9247436523435	134.5832824707031	916.0224609375001	-527.543273925781	97.98408508300781	885.4633789062501	-592.656066894531	178.6759948730469	839.5249633789064	-566.4537353515623	-40.10096740722656	1076.669555664062	-154.6732177734373	-167.1547088623047	1048.382446289062	-318.0832519531248	-54.16767501831055	1070.7041015625	-498.2989501953123	-71.60760498046875	926.3566284179688	-134.2113647460936	47.08908843994141	659.2164306640625	-149.5753173828124	95.96588897705078	691.2922973632812	-144.5867614746092	131.8223876953125	594.7236938476562	-176.1677398681639	68.39090728759766	581.0806274414062	-167.8298492431639	69.35188293457031	362.8627319335938	-164.7384338378905	126.891242980957	345.0132141113282	-172.4545745849609	129.5469207763672	260.2157897949219	-187.5698699951171	64.84729766845703	263.0190429687501	-184.6830596923828	52.59854888916016	46.24659347534185	-270.811767578125	202.9381408691406	31.93403053283695	-168.0248718261719	264.0183715820312	55.05154418945318	-247.3235473632812	-92.61808013916016	959.0217895507814	-497.2196655273435	-52.38185882568359	664.5607299804689	-476.429473876953	-102.0426330566406	692.4574584960939	-492.5541076660155	-132.2777252197266	596.6540527343751	-459.8329162597655	-69.74575805664062	588.3445434570314	-451.3256835937499	-168.0562896728516	330.5736083984376	-437.8345336914062	-228.8003234863281	321.7865600585939	-441.9118957519531	-251.6582336425781	239.1118164062501	-422.0511779785156	-188.7473449707031	232.0968627929688	-410.8283691406249	-335.1183166503906	67.06164550781257	-347.9377746582031	-164.2986907958984	20.62957763671884	-413.1034851074219	-128.5662231445312	25.62252998352058	-306.3088989257812	
4	0.012	98.11203765869141	1740.465454101562	-321.939300537109	39.07955169677734	1688.120971679688	-245.9885559082028	39.77799606323242	1693.76708984375	-394.0172424316402	-96.34537506103516	1524.67822265625	-326.2451477050778	-174.5042877197266	1329.476684570312	-261.8491516113278	-171.4967956542969	1334.438720703125	-402.5136718749997	77.37480163574219	1357.969482421875	-317.3649597167966	-27.30556678771973	1476.69873046875	-151.1210784912106	-85.01240539550781	1321.34228515625	-60.47167205810518	-32.01219940185547	1231.305786132812	-49.04655456542942	-153.7830810546875	1243.839111328125	-53.48504638671847	-116.0438995361328	1135.425170898438	-39.41673660278295	-128.1858215332031	1129.447509765625	-118.8801498413083	-27.93951797485352	945.9603271484375	-23.55733108520487	9.723029136657715	876.380126953125	-59.29139709472637	-62.00011444091797	858.3582153320312	-27.4952621459959	1.712899565696716	791.2760620117188	0.3214716911317675	-14.40571594238281	1476.371826171875	-490.1655273437497	-26.25757217407227	1311.714477539063	-588.6450195312497	37.81538772583008	1232.424072265625	-581.068176269531	-80.75508880615234	1232.946044921875	-619.468811035156	-17.67511940002441	1130.348876953125	-623.2359619140623	-76.24399566650391	1121.5751953125	-571.2662963867185	106.6259841918945	969.1898193359376	-584.563537597656	141.6383972167969	916.2210083007814	-527.2543945312498	105.3427124023438	885.2973022460939	-592.1256713867185	186.3775482177734	839.9578247070314	-565.6116943359373	-34.69083786010742	1075.483032226562	-154.2978057861326	-162.0627593994141	1047.46875	-318.155090332031	-48.74058151245117	1069.749267578125	-498.3594970703123	-66.41191101074219	925.3844604492188	-134.4027709960936	51.69643402099609	657.8167724609375	-149.850860595703	100.6679306030273	690.0211791992188	-144.4410400390624	136.1480712890625	592.9058227539062	-176.9096221923827	72.98493194580078	579.9209594726562	-168.3457794189452	78.30664825439453	361.1416931152344	-165.2291259765624	136.1004638671875	344.7787170410157	-172.669464111328	140.8297729492188	260.0427246093751	-187.5643920898437	76.18651580810547	260.7155761718751	-185.7785186767578	69.51339721679688	44.12821578979498	-271.543701171875	219.8289947509766	33.17480087280277	-168.1558532714844	280.5069274902344	57.61173248291021	-248.1309814453125	-87.58798217773438	958.4714965820314	-497.1041259765623	-49.54376220703125	664.0882568359376	-476.8059692382811	-99.12191772460938	692.2796630859376	-492.5687866210936	-129.7655029296875	596.6245117187501	-460.035430908203	-67.35348510742188	587.7897338867189	-451.5588989257811	-167.9298858642578	330.2120971679689	-437.5448303222656	-227.8024597167969	322.0790405273439	-441.9334716796874	-250.9892272949219	239.5607147216798	-422.1379394531249	-188.0280609130859	232.1766510009766	-410.7770385742187	-334.9095764160156	67.88066101074226	-347.5438537597656	-164.4244537353516	20.6287555694581	-413.0055847167969	-128.5351257324219	25.64185142517097	-306.3551635742188	
